# xmcd
#
# Track frame offsets:
#	150
#	14412
#	28347
#	41890
#	53832
#	65890
#	82472
#	101182
#	116637
#	129000
#	142565
#	153757
#	167820
#	180740
#	191685
#	201892
#	211442
#	221567
#	235370
#	246577
#	265872
#	282200
#	296567
#	317320
#
# Disc length: 4445
#
# Revision: 2
# Processed by: cddbd v1.5.1PL0 Copyright (c) Steve Scherf et al.
# Submitted via: EasyCDDAExtractor 6.0.0.1
# Normalized: r1:DSETVAR1
#
DISCID=72115b18
DTITLE=Various Artist - Shaggers Delight Volume III
DYEAR=1992
DGENRE=
TTITLE0=Gary Bass and The Ebs Allstar Blues Band - Soothe Me
TTITLE1=Billy Ocean - Love Really Hurts Without You
TTITLE2=Joe Simon - Get Down Get Down (Get On The Floor)
TTITLE3=Little Milton - We're Gonna Make It
TTITLE4=Fat City - Just A Little Bit
TTITLE5=Rockin' Louie and The Mamma Jammers - Don't Buy Me No Beer
TTITLE6=Dynamic Breakers - Boogie In The Street
TTITLE7=Lenny Williams - Ten Ways Of Loving You
TTITLE8=Candi Staton - Count On Me
TTITLE9=Clarence Carter - Can We Slip Away Again
TTITLE10=Temprees - Wrap Me In Love
TTITLE11=Paul Jabara - Trapped In A Stairway
TTITLE12=Amos Milburn And The Chickenshackers - One Scotch One Bourbon One Beer
TTITLE13=Peppermint Harris - I Got Loaded
TTITLE14=Sonny Boy Williamson - Temperature 110
TTITLE15=Gene Allison - Reap What You Sow
TTITLE16=Irma Thomas - Don't Mess With My Man
TTITLE17=Four Tops - Could It Be You
TTITLE18=Jimmy Liggins - Boogie Woogie King
TTITLE19=Carl Gardner and The Coasters - If I Had A Hammer
TTITLE20=Mighty Clouds Of Joy - Mighty High
TTITLE21=Rockin' Louie and The Mamma Jammers - Real Gone Lover
TTITLE22=Rosco Gordon and Killing Floor - Let's Get High
TTITLE23=Ronnie Williams - Dreamin
EXTD=
EXTT0=
EXTT1=
EXTT2=
EXTT3=
EXTT4=
EXTT5=
EXTT6=
EXTT7=
EXTT8=
EXTT9=
EXTT10=
EXTT11=
EXTT12=
EXTT13=
EXTT14=
EXTT15=
EXTT16=
EXTT17=
EXTT18=
EXTT19=
EXTT20=
EXTT21=
EXTT22=
EXTT23=
PLAYORDER=
